<svg id="Layer_1" data-name="Layer 1" xmlns="http://www.w3.org/2000/svg" xmlns:xlink="http://www.w3.org/1999/xlink" viewBox="0 0 425.2 170.08"><defs><style>.cls-1{fill:url(#linear-gradient);}.cls-2{fill:url(#linear-gradient-2);}.cls-3{fill:#00c864;}.cls-4{font-size:24px;font-family:BwModelica-Bold, Bw Modelica;font-weight:700;}.cls-5{letter-spacing:-0.01em;}.cls-6{letter-spacing:-0.01em;}.cls-7{letter-spacing:-0.02em;}.cls-8{letter-spacing:-0.02em;}.cls-9{letter-spacing:-0.02em;}</style><linearGradient id="linear-gradient" x1="111.67" y1="24.8" x2="108.41" y2="32.41" gradientTransform="translate(414.71 -22.04) rotate(111.66)" gradientUnits="userSpaceOnUse"><stop offset="0.18"/><stop offset="1" stop-color="#fff"/></linearGradient><linearGradient id="linear-gradient-2" x1="120.92" y1="19.88" x2="150.18" y2="31.94" gradientTransform="translate(414.71 -22.04) rotate(111.66)" gradientUnits="userSpaceOnUse"><stop offset="0.28"/><stop offset="1" stop-color="#fff"/></linearGradient></defs><title>Powered by YakSwap</title><path class="cls-1" d="M352.82,78l-5.43-1.58s1.5-6.26.1-9.41C347.49,67,355.93,62.83,352.82,78Z"/><path class="cls-2" d="M336.86,102.17s4.81,1,12.11-12.51l1.82.71-1.23-10.18-8,6.68,2.08.83s-3.4,8.16-9.87,11.94c-.21.12.33,1.1,1.32,1.81A8.94,8.94,0,0,0,336.86,102.17Z"/><path class="cls-3" d="M336.13,85.3c6.72,3.41,11.45,4.88,14.71,5.19,9.25,0,10-8,10-8-3.4,5.59-7.66,4.7-12.09,2.67a88.91,88.91,0,0,1-12.62-7c-.05,0-.05-.05-.1-.05h-.05a30.14,30.14,0,0,0-14.24-4.94,7,7,0,0,0-1,0,17.5,17.5,0,0,0-2.29,0A25.79,25.79,0,0,0,310,74.92c-11.4,4-18.93,13.53-18.93,13.53V73.14H277.63V109h13.43v-8l7.28-5.09L307,109h15.87l-15.21-21c5.14-5.4,14.09-10,28.43-2.75"/><path class="cls-3" d="M220.05,109.11h6.1l3-5.29V99.9c0-2.19,0-3.46.92-5.29L234,86.83a4.3,4.3,0,0,1,.35-.67,5.71,5.71,0,0,1,4.48-3.46h0c22.64-3.4,18.26-22.12,16.63-26.24-.15-.36-.25-.51-.3-.51s-.15.25-.15.56c-.36,16.58-11.81,16.63-20.5,16.63h-3.62a1.22,1.22,0,0,0-1.17.87L228,80.52,226.15,78l-3.05,6.16-3-6.16-1.83,2.5-1.78-6.46a1.27,1.27,0,0,0-1.17-.92h-3.62c-8.75,0-20.14,0-20.5-16.63,0-.31-.05-.56-.15-.56s-.15.15-.31.51c-1.62,4.12-6,22.84,16.64,26.24h0a5.82,5.82,0,0,1,4.48,3.46c.1.26.25.46.35.67l3.92,7.78c.91,1.78.91,3,.91,5.29v3.92Z"/><path class="cls-3" d="M262.42,73.09h-4.83a16.49,16.49,0,0,1-.81,1.63C254,79.6,249,82.86,242,84.43L231.59,109h13.74l1.78-5h14.65l1.78,5h14.25ZM249.86,95.88l4.42-12.77h.26l4.37,12.77Z"/><path d="M351.18,66.75s-3.86-1.45-6.77-2.22c0,0-4.81-1-12.12,12.51l-2.38-1,1.8,10.49,8.26-6.6-2.3-.92S345.89,64.38,351.18,66.75Z"/><path d="M328.19,88.41c-1.13,9.63,2,11.26,2,11.26,2.75,1.22,6.67,2.5,6.67,2.5-3.41-1-3.66-7-3.15-11.86Z"/><path d="M193.94,59.91c-.07-.52,0-.26,0-.26,1.78,5.43,4.94,10.39,16.87,10,.56,0,.82-.21.83-.45s-.36-.39-.9-.53l-.27-.07c-1.06-.28-1.7-.59-1.7-1.56,0-1.12.9-1.82,2.26-1.82a3.47,3.47,0,0,1,2,.65l-.68,1a2.28,2.28,0,0,0-1.34-.44c-.41,0-.66.12-.66.32s.36.43.87.56l.25.07c.94.25,1.84.73,1.84,1.75,0,1.19-.85,1.64-2.44,1.71C195.63,71.57,194.29,62.4,193.94,59.91Z"/><path d="M231.34,65.21l-3.56,10.54h-2.33l-2.35-7.07-2.33,7.07h-2.32l-3.58-10.54h2.67l2.19,7.19L222,65.21h2.31l2.23,7.19,2.18-7.19Z"/><path d="M236,70.14h-2.2l-.29.78h-1.67l2.34-5.65h1.46L238,70.92H236.3Zm-.49-1.29-.6-1.62-.61,1.62Z"/><path d="M243.89,67.2a2,2,0,0,1-2.19,2h-.86v1.68h-1.58V65.27h2.53A1.9,1.9,0,0,1,243.89,67.2Zm-1.61,0a.62.62,0,0,0-.65-.68h-.79v1.37h.79A.62.62,0,0,0,242.28,67.25Z"/><text class="cls-4" transform="translate(64.4 108.61)"><tspan class="cls-5">P</tspan><tspan class="cls-6" x="15.98" y="0">ow</tspan><tspan x="53.16" y="0">e</tspan><tspan class="cls-7" x="67.85" y="0">r</tspan><tspan x="77.06" y="0">ed </tspan><tspan class="cls-8" x="114" y="0">b</tspan><tspan class="cls-9" x="129.91" y="0">y</tspan></text></svg>