<svg id="Layer_1" data-name="Layer 1" xmlns="http://www.w3.org/2000/svg" xmlns:xlink="http://www.w3.org/1999/xlink" viewBox="0 0 400 400"><defs><style>.cls-1{fill:url(#linear-gradient);}.cls-2{fill:url(#linear-gradient-2);}.cls-3{fill:#00c864;}</style><linearGradient id="linear-gradient" x1="-3348.7" y1="-2183.89" x2="-3355.11" y2="-2168.94" gradientTransform="translate(-2907.24 2472.77) rotate(111.66)" gradientUnits="userSpaceOnUse"><stop offset="0.18"/><stop offset="1" stop-color="#fff"/></linearGradient><linearGradient id="linear-gradient-2" x1="-3330.53" y1="-2193.56" x2="-3273" y2="-2169.85" gradientTransform="translate(-2907.24 2472.77) rotate(111.66)" gradientUnits="userSpaceOnUse"><stop offset="0.28"/><stop offset="1" stop-color="#fff"/></linearGradient></defs><title>YY Swap Logo</title><path class="cls-1" d="M363,177.05l-10.69-3.11s3-12.29.2-18.49C352.51,155.45,369.1,147.24,363,177.05Z"/><path class="cls-2" d="M331.61,224.56s9.46,1.89,23.82-24.59l3.57,1.41-2.41-20L340.77,194.5l4.1,1.62s-6.69,16-19.4,23.47c-.41.24.65,2.17,2.6,3.55A16.88,16.88,0,0,0,331.61,224.56Z"/><path class="cls-3" d="M330.19,191.4c13.2,6.7,22.5,9.6,28.9,10.2,18.2,0,19.6-14.4,19.6-14.4-6.7,11-15.1,8-23.8,4-6.1-2.6-14.1-6.9-24.8-13.8-.1,0-.1-.1-.2-.1h-.1c-9.7-6.2-19.2-9.1-28-9.7a13.4,13.4,0,0,0-2-.1,33.79,33.79,0,0,0-4.5,0,50.91,50.91,0,0,0-16.5,3.5c-22.4,7.9-37.2,26.6-37.2,26.6V167.5h-26.4V238h26.4V222.2l14.3-10L273,238h31.2l-29.9-41.2c10.1-10.6,27.7-19.6,55.9-5.4"/><path class="cls-3" d="M102,238.2h12l6-10.4v-7.7c0-4.3,0-6.8,1.8-10.4l7.7-15.3a8.26,8.26,0,0,1,.7-1.3c1.4-2.8,3.4-5.8,8.8-6.8h0c44.5-6.7,35.9-43.5,32.7-51.6-.3-.7-.5-1-.6-1s-.3.5-.3,1.1c-.7,32.6-23.2,32.7-40.3,32.7h-7.1a2.37,2.37,0,0,0-2.3,1.7l-3.5,12.8-3.6-4.9-6,12.1-6-12.1-3.6,4.9-3.5-12.7a2.46,2.46,0,0,0-2.3-1.8h-7.1c-17.2,0-39.6-.1-40.3-32.7,0-.6-.1-1.1-.3-1.1s-.3.3-.6,1c-3.2,8.1-11.8,44.9,32.7,51.6h0a11.39,11.39,0,0,1,8.8,6.8c.2.5.5.9.7,1.3l7.7,15.3c1.8,3.5,1.8,6,1.8,10.4v7.7Z"/><path class="cls-3" d="M185.29,167.4h-9.5a31.82,31.82,0,0,1-1.6,3.2c-5.5,9.6-15.3,16-29,19.1l-20.5,48.2h27l3.5-9.9H184l3.5,9.9h28Zm-24.7,44.8,8.7-25.1h.5l8.6,25.1Z"/><path d="M359.78,155s-7.6-2.86-13.32-4.38c0,0-9.46-1.88-23.82,24.59l-4.68-2,3.52,20.62,16.26-13L333.2,179S349.37,150.28,359.78,155Z"/><path d="M314.57,197.53c-2.22,18.92,3.92,22.12,3.92,22.12,5.4,2.4,13.12,4.92,13.12,4.92-6.71-2-7.2-13.72-6.21-23.31Z"/><path d="M50.67,141.49c-.14-1,0-.51,0-.51,3.51,10.67,9.72,20.43,33.16,19.6,1.11,0,1.63-.42,1.63-.88s-.68-.77-1.76-1l-.53-.14c-2.08-.54-3.34-1.16-3.34-3.06,0-2.21,1.77-3.57,4.44-3.57a6.89,6.89,0,0,1,4,1.27l-1.34,2a4.51,4.51,0,0,0-2.64-.87c-.79,0-1.29.24-1.29.63s.71.85,1.7,1.11l.51.13c1.83.48,3.6,1.43,3.6,3.44,0,2.34-1.67,3.22-4.8,3.37C54,164.42,51.36,146.39,50.67,141.49Z"/><path d="M124.19,151.91l-7,20.72h-4.57L108,158.74l-4.59,13.89H98.85l-7-20.72h5.23l4.32,14.14,4.36-14.14h4.54l4.4,14.14L119,151.91Z"/><path d="M133.38,161.61h-4.33l-.57,1.52h-3.29l4.6-11.1h2.86l4.59,11.1H134Zm-1-2.55-1.18-3.18-1.2,3.18Z"/><path d="M148.87,155.82c0,2.4-1.71,4-4.31,4h-1.7v3.3h-3.09V152h5C147.22,152,148.87,153.54,148.87,155.82Zm-3.18.11a1.23,1.23,0,0,0-1.28-1.35h-1.55v2.7h1.55A1.21,1.21,0,0,0,145.69,155.93Z"/></svg>